<svg version="1.1" id="Layer_1" xmlns="http://www.w3.org/2000/svg" xmlns:xlink="http://www.w3.org/1999/xlink" x="0px" y="0px"
	 width="100%" viewBox="0 0 320 272" enable-background="new 0 0 320 272" xml:space="preserve">
<path fill="#000000" opacity="1.000000" stroke="none" 
	d="
M223.722443,226.281204 
	C207.836975,210.812317 192.239899,195.554581 176.533020,180.410736 
	C173.635498,177.617096 171.418839,174.808792 171.894150,170.492889 
	C172.071716,168.880630 172.119385,166.963806 170.436234,165.981567 
	C168.318375,164.745651 167.081039,166.748581 165.680206,167.719177 
	C128.536087,193.455490 78.696236,183.366623 55.831806,145.453934 
	C29.359184,101.558296 56.600243,43.394394 107.294113,35.573906 
	C145.223907,29.722515 179.024384,48.306469 191.822723,83.003296 
	C200.588486,106.767731 197.103531,129.463242 182.883835,150.488647 
	C181.666962,152.287903 178.872086,153.788162 180.233582,156.429977 
	C181.422501,158.736938 184.122971,157.868484 186.183517,157.888596 
	C189.231522,157.918335 191.530334,159.070724 193.682144,161.194504 
	C210.633255,177.924942 227.572128,194.670013 244.732529,211.184296 
	C248.074524,214.400452 247.765167,216.357239 244.538162,219.119873 
	C241.256165,221.929565 238.316467,225.139694 235.233856,228.181564 
	C230.503235,232.849716 230.505508,232.852585 225.762878,228.274246 
	C225.163788,227.695908 224.569504,227.112595 223.722443,226.281204 
M152.736023,147.255569 
	C168.716217,134.122864 175.577896,117.231209 170.725662,97.120682 
	C163.540344,67.340408 133.940552,51.511818 104.732742,60.788498 
	C71.250092,71.422905 58.889648,112.737816 81.188431,139.485580 
	C98.838249,160.656830 128.747726,164.110046 152.736023,147.255569 
z"/>
</svg>